<svg xmlns="http://www.w3.org/2000/svg" fill="none" viewBox="0 0 1440 278">
  <path stroke="#011F4A" stroke-width="4" d="M822.703 195.875c-3.157-48.198-17.512-97.434 5.757-139.281C858.351 2.839 903.237-62.411 962.742-55.97c59.488 6.44 70.638 91.213 108.898 138.889 31.79 39.601 91.26 61.467 93.25 112.956 2.01 52.049-45.82 88.736-84.15 122.395-34.22 30.057-73.15 55.28-117.998 55.121-44.708-.158-88.888-20.064-117.2-55.953-26.203-33.215-20.035-78.745-22.839-121.563Zm-887.67-70.259C-67.662 71.859-44.616 17.86-4.652-16.684 32.703-48.97 90.756-70.453 133.094-45.58c40.164 23.597 15.49 90.315 37.869 132.075 11.053 20.624 42.03 18.972 53.875 39.121 30.115 51.226 106.328 119.971 63.266 160.133-43.981 41.019-96.116-67.85-155.01-74.568-45.081-5.142-82.338 60.798-124.182 42.721-46.194-19.956-71.29-76.629-73.879-128.286Zm594.977 85.353c.397-66.597-120.632-128.882-74.998-175.77 45.715-46.972 114.498 44.073 169.601 78.566 19.784 12.385 24.634 37.85 41.868 53.812 19.562 18.118 50.771 19.38 63.079 43.392 22.826 44.531 52.91 96.296 31.81 141.732-23.908 51.487-81.974 77.839-136.757 84.271-61.239 7.191-147.178 10.545-171.706-48.051-25.958-62.013 76.701-110.358 77.103-177.952Z" clip-rule="evenodd"/>
  <path stroke="#011F4A" stroke-width="4" d="M1011.11 358.789c-3.87-60.556-40.966-156.687 15.01-174.446 67.01-21.26 98.44 110.218 168.27 116.3 57.4 5 90.69-116.012 142.19-89.259 45.03 23.397-29.24 95.193-30.27 147.405-.97 49.827 50.04 99.247 24.61 141.541-26.24 43.644-86.96 42.667-136.53 44.624-52.22 2.061-110.01 4.501-147.34-33.418-37.54-38.129-32.46-98.384-35.94-152.747Z" clip-rule="evenodd"/>
  <path stroke="#011F4A" stroke-width="4" d="M1256.62 149.34c-17.4-45.872 64.22-70.868 109.62-85.915 28.31-9.386 54.43 13.942 83.13 22.024 16.59 4.673 35.99 1.588 47.51 14.78 11.21 12.823 8.02 31.838 8.3 49.111.28 17.745-1.92 33.702-6.71 50.744-14.62 51.991 2.7 155.786-49.1 147.771-54.82-8.48 2.94-120.552-36.32-160.985-39.42-40.597-136.13 16.017-156.43-37.53ZM651.595 29.444c3.051-22.775 25.472-34.681 35.909-54.981 20.512-39.894 10.103-110.582 53.154-118.236 40.647-7.227 42.921 68.88 75.217 95.413 42.08 34.572 131.966 22.346 135.617 77.804 3.569 54.192-76.2 68.163-124.621 89.179-27.558 11.96-56.483 5.463-86.213 2.326-25.019-2.64-52.411-.503-70.254-18.835-17.88-18.371-22.268-46.848-18.809-72.67Z" clip-rule="evenodd"/>
  <path stroke="#011F4A" stroke-width="4" d="M1043.14 27.465c-5.58-29.096-22.34-66.732-.21-85.6 22.47-19.164 55.19 25 82.73 15.21 64.68-22.995 108.85-137.803 169.37-104.839 53.37 29.072-38.14 112.86-40.14 175.23-1.85 57.756 80.22 140.282 29.28 163.991-59.29 27.596-99.95-74.624-158.51-103.842-17.3-8.633-39.66 8.574-55.36-2.87-17.47-12.734-23.01-35.593-27.16-57.28Z" clip-rule="evenodd"/>
  <path stroke="#011F4A" stroke-width="4" d="M848.837-21.219c-4.804-46.8-43.288-113.092-3.355-135.771 44.009-24.995 81.263 61.78 131.475 63.006 47.423 1.159 84.923-82.29 125.403-56.732 37.19 23.488 4.71 87.182-10.18 129.497-9.64 27.408-40.01 36.927-56.65 60.485-23.56 33.352-20.17 91.163-58.573 102.638-39.337 11.756-80.478-20.532-106.274-53.376C847 58.375 852.8 17.39 848.837-21.219Zm-643.898-7.222c-5.573-53.374-10.739-117.195 28.468-152.073 38.491-34.241 95.45-2.532 146.076-3.201 51.916-.685 132.274-51.576 149.831-.708 20.867 60.456-66.982 99.42-96.238 155.982-7.52 14.538-4.353 30.897-8.645 46.793-14.299 52.96 3.306 129.28-44.948 151.705-43.793 20.352-85.053-39.415-117.436-76.242-30.554-34.747-52.219-75.424-57.108-122.256Zm-480.648 245.317c12.61-51.111 86.064-48.731 119.57-88.448 39.171-46.431 28.058-137.752 85.347-154.449C-13.102-42.835 65.433-.665 81.343 59.213c16.15 60.78-84.142 94.723-87.593 157.663-3.015 54.972 86.536 87.98 71.23 140.706-15.67 53.979-81.403 79.976-135.772 81.631-55.538 1.689-105.607-31.48-143.984-73.12-37.421-40.601-74.354-94.82-60.933-149.217ZM1445.9 231.38c-19.48-52.127-62.78-141.856-12.09-160.842 60.74-22.753 92.76 89.58 155.04 107.296 31.96 9.091 56.83-48.781 88.32-38.075 36.95 12.559 83.43 54.086 69.2 91.621-15.87 41.857-90.88 5.718-119.06 39.894-33.94 41.145 11.8 136.467-38.46 151.092-44.84 13.047-39.87-81.829-68.44-119.988-21.5-28.727-61.85-37.084-74.51-70.998Z" clip-rule="evenodd"/>
</svg>
