<svg width="723" height="681" viewBox="0 0 723 681" fill="none" xmlns="http://www.w3.org/2000/svg">
<path fill-rule="evenodd" clip-rule="evenodd" d="M-138.664 408.417C-144.243 335.206 -169.619 260.416 -128.488 196.851C-75.6518 115.197 3.69003 16.0837 108.872 25.8681C214.021 35.6494 233.727 164.42 301.37 236.838C357.557 296.992 462.675 330.206 466.194 408.417C469.752 487.479 385.21 543.206 317.457 594.334C256.957 639.989 188.143 678.304 108.872 678.062C29.8458 677.822 -48.2481 647.584 -98.2933 593.069C-144.609 542.617 -133.708 473.457 -138.664 408.417Z" stroke="#011F4A" stroke-width="4"/>
<path fill-rule="evenodd" clip-rule="evenodd" d="M194.375 655.882C187.528 563.898 121.957 417.877 220.905 390.901C339.356 358.608 394.902 558.321 518.341 567.56C619.797 575.154 678.646 391.339 769.67 431.976C849.276 467.515 717.986 576.572 716.179 655.882C714.455 731.569 804.62 806.637 759.673 870.882C713.292 937.176 605.962 935.692 518.341 938.664C426.025 941.796 323.89 945.502 257.902 887.903C191.549 829.985 200.522 738.459 194.375 655.882Z" stroke="#011F4A" stroke-width="4"/>
<path fill-rule="evenodd" clip-rule="evenodd" d="M-134.039 951.808C-159.396 872.724 -259.02 794.581 -210.674 724.487C-163.909 656.685 -44.2384 685.557 44.8394 692.464C123.525 698.565 195.331 719.823 259.386 760.934C339.837 812.568 437.95 864.094 448.922 951.808C460.446 1043.94 395.765 1134.03 313.116 1190.48C238.481 1241.46 134.777 1252.4 44.8394 1227.8C-28.0707 1207.85 -59.1526 1137.01 -97.2561 1078.22C-122.663 1039.02 -120.087 995.322 -134.039 951.808Z" stroke="#011F4A" stroke-width="4"/>
<path fill-rule="evenodd" clip-rule="evenodd" d="M-742.682 898.033C-682.438 815.463 -538.241 1002.95 -434.285 969.603C-322.297 933.683 -337.531 714.512 -219.895 730.349C-116.819 744.226 -236.051 906.839 -219.258 998.551C-207.452 1063.03 -122.946 1109.11 -138.865 1172.9C-157.126 1246.08 -218.973 1324.99 -302.627 1332.65C-384.525 1340.14 -441.783 1263.16 -492.266 1205.24C-521.473 1171.72 -490.476 1119.31 -518.463 1084.98C-581.002 1008.26 -800.732 977.595 -742.682 898.033Z" stroke="#011F4A" stroke-width="4"/>
<path fill-rule="evenodd" clip-rule="evenodd" d="M628.332 337.732C597.581 268.053 741.855 230.085 822.096 207.229C872.15 192.971 918.324 228.405 969.039 240.682C998.365 247.781 1032.67 243.095 1053.03 263.133C1072.83 282.611 1067.21 311.495 1067.69 337.732C1068.19 364.686 1064.3 388.924 1055.83 414.812C1029.99 493.785 1060.62 651.449 969.039 639.274C872.149 626.393 974.244 456.157 904.849 394.74C835.173 333.073 664.228 419.07 628.332 337.732Z" stroke="#011F4A" stroke-width="4"/>
<path fill-rule="evenodd" clip-rule="evenodd" d="M-441.113 155.612C-435.721 121.017 -396.09 102.931 -377.64 72.0951C-341.383 11.4978 -359.782 -95.8773 -283.685 -107.504C-211.836 -118.481 -207.816 -2.87677 -150.729 37.4273C-76.347 89.9423 82.536 71.3707 88.9913 155.611C95.299 237.927 -45.7024 259.151 -131.293 291.073C-180.004 309.24 -231.132 299.371 -283.685 294.606C-327.909 290.597 -376.327 293.842 -407.866 265.996C-439.472 238.091 -447.228 194.835 -441.113 155.612Z" stroke="#011F4A" stroke-width="4"/>
<path fill-rule="evenodd" clip-rule="evenodd" d="M250.977 152.605C241.123 108.408 211.505 51.24 250.609 22.5792C290.324 -6.53048 348.178 60.5545 396.856 45.6827C511.184 10.7535 589.261 -163.638 696.232 -113.566C790.57 -69.4068 628.807 57.8677 625.277 152.605C622.009 240.336 767.072 365.692 677.034 401.707C572.236 443.625 500.363 288.353 396.856 243.971C366.273 230.858 326.753 256.996 298.995 239.611C268.115 220.27 258.321 185.547 250.977 152.605Z" stroke="#011F4A" stroke-width="4"/>
<path fill-rule="evenodd" clip-rule="evenodd" d="M-92.4689 78.656C-100.96 7.56588 -168.986 -93.1292 -98.3993 -127.58C-20.608 -165.546 45.2438 -33.7366 133.999 -31.8735C217.832 -30.1137 284.116 -156.872 355.657 -118.048C421.4 -82.3707 363.984 14.3792 337.673 78.656C320.631 120.288 266.945 134.747 237.53 170.532C195.887 221.193 201.877 309.006 133.999 326.438C64.4664 344.294 -8.25533 295.25 -53.8532 245.36C-95.716 199.558 -85.4639 137.302 -92.4689 78.656Z" stroke="#011F4A" stroke-width="4"/>
</svg>
